<svg width="16" height="15" viewBox="0 0 16 15" fill="none" xmlns="http://www.w3.org/2000/svg">
<path fill-rule="evenodd" clip-rule="evenodd" d="M12.7746 7.49592C12.7746 4.82882 10.55 2.65895 7.79661 2.65895C5.0519 2.65895 2.81889 4.82882 2.81889 7.49592C2.81889 10.1712 5.0519 12.3329 7.79661 12.3329C10.55 12.3329 12.7746 10.1712 12.7746 7.49592ZM12.6808 2.00433C12.2378 2.00433 11.8796 2.35233 11.8796 2.7828C11.8796 3.21357 12.2378 3.56157 12.6808 3.56157C13.1241 3.56157 13.4822 3.21357 13.4822 2.7828C13.4822 2.35233 13.1241 2.00433 12.6808 2.00433ZM3.731 0.886316H11.8712C13.3799 0.886316 14.6072 2.07894 14.6072 3.54526V11.455C14.6072 12.9211 13.3799 14.1137 11.8712 14.1137H3.731C2.22201 14.1137 0.994991 12.9211 0.994991 11.455V3.54526C0.994991 2.07894 2.22201 0.886316 3.731 0.886316ZM11.8712 0H3.731C1.72803 0 0.0828857 1.59017 0.0828857 3.54526V11.455C0.0828857 13.4014 1.72803 15 3.731 15H11.8712C13.8829 15 15.5194 13.4014 15.5194 11.455V3.54526C15.5194 1.59017 13.8829 0 11.8712 0ZM3.85877 7.49592C3.85877 5.38375 5.62329 3.66096 7.79661 3.66096C9.97895 3.66096 11.7432 5.38375 11.7432 7.49592C11.7432 9.61595 9.97895 11.3309 7.79661 11.3309C5.62329 11.3309 3.85877 9.61595 3.85877 7.49592Z" fill="white"/>
</svg>
