<svg width="17" height="13" viewBox="0 0 17 13" fill="none" xmlns="http://www.w3.org/2000/svg">
<path fill-rule="evenodd" clip-rule="evenodd" d="M16.4089 1.81955C15.8477 2.06111 15.2371 2.22741 14.5926 2.31056C15.2536 1.91969 15.7555 1.32035 15.9906 0.588089C15.3794 0.945875 14.693 1.20382 13.9731 1.34523C13.403 0.738001 12.575 0.363525 11.6542 0.363525C9.91298 0.363525 8.48959 1.75309 8.48959 3.45856C8.48959 3.70832 8.53173 3.94138 8.5818 4.16624C5.94509 4.04122 3.60912 2.80976 2.05201 0.929184C1.78425 1.39531 1.61693 1.91969 1.61693 2.48535C1.61693 3.5669 2.18604 4.51553 3.02291 5.0648C2.50418 5.05631 2.01842 4.91489 1.5919 4.68183C1.5919 4.69852 1.5919 4.70702 1.5919 4.72341C1.5919 5.12277 1.66731 5.48905 1.80928 5.83834C2.19459 6.81215 3.0736 7.54411 4.13701 7.75229C3.86009 7.82724 3.59233 7.86852 3.29953 7.86852C3.09863 7.86852 2.89773 7.84363 2.70477 7.80206C3.11542 9.03352 4.27868 9.93208 5.66054 9.96546C4.57178 10.7976 3.21587 11.2886 1.73418 11.2886C1.47435 11.2886 1.23193 11.2716 0.972412 11.2467C2.3787 12.1207 4.0445 12.6363 5.82785 12.6363C10.7752 12.6363 13.8308 9.2332 14.6255 5.69692C14.7684 5.0648 14.835 4.44058 14.835 3.82485C14.835 3.69162 14.835 3.55051 14.835 3.42549C15.4462 2.98455 15.9906 2.43528 16.4089 1.81955Z" fill="white"/>
</svg>
