<svg width="99" height="32" viewBox="0 0 99 32" fill="none" xmlns="http://www.w3.org/2000/svg">
    <path d="M97.4204 3.83823H85.2029L86.7577 0H99.0002L97.4204 3.83823Z" fill="#3FB9BC"/>
    <path d="M95.0491 9.69082H82.8376L84.3863 5.85187H96.6039L95.0491 9.69082Z" fill="#3FB9BC"/>
    <path fill-rule="evenodd" clip-rule="evenodd" d="M13.0436 19.6727C13.0845 19.3508 13.1116 18.8229 13.1116 18.3826C13.0984 13.954 10.4921 10.9176 6.68591 10.918C2.72898 10.918 0 13.9689 0 18.4422C0 22.9144 2.81112 25.8771 6.86302 25.8771C9.08704 25.8771 10.9977 25.2028 12.4984 23.7209L10.4103 21.257C9.45512 22.1231 8.21399 22.6216 7.06785 22.6216C5.38969 22.6216 4.05224 21.7268 3.67031 19.6727H13.0436ZM9.53736 17.0641H3.68359C3.99759 15.3039 4.97981 14.2184 6.6583 14.2188C8.18672 14.2188 9.20984 15.2451 9.53736 17.0641Z" fill="white"/>
    <path fill-rule="evenodd" clip-rule="evenodd" d="M25.3027 11.2947V12.8638C24.43 11.7053 23.1612 10.9133 21.3468 10.9133C17.7035 10.9133 14.9475 14.1248 14.9475 18.3925C14.9475 22.6616 17.7039 25.8727 21.3468 25.8727C23.1199 25.8727 24.3752 25.1243 25.2354 24.0243V31.372H28.782V11.2947H25.3027ZM22.0025 22.307C19.9147 22.307 18.5914 20.5625 18.5914 18.3914C18.5914 16.2211 19.9147 14.4765 22.0025 14.4765C24.0355 14.4765 25.4135 16.1477 25.4135 18.3914C25.4135 20.6344 24.0355 22.307 22.0025 22.307Z" fill="white"/>
    <path d="M44.574 19.4497C44.574 23.9382 41.6267 25.8742 38.3255 25.8742C35.0101 25.8742 32.0627 23.9386 32.0627 19.4497V11.2962H35.6239V19.1126C35.6239 21.385 36.7835 22.3096 38.3255 22.3096C39.8536 22.3096 41.0268 21.385 41.0268 19.1126V11.2962H44.574V19.4497Z" fill="white"/>
    <path fill-rule="evenodd" clip-rule="evenodd" d="M57.3448 25.5105H60.8241V11.2994H57.3448V12.8685C56.4718 11.7096 55.2029 10.918 53.3879 10.918C49.7446 10.918 46.9893 14.1295 46.9893 18.3972C46.9893 22.6663 49.7449 25.8774 53.3879 25.8774C55.2029 25.8774 56.4856 25.0844 57.3448 23.9414V25.5105ZM54.0431 22.3109C51.9557 22.3109 50.6324 20.5663 50.6324 18.3952C50.6324 16.2249 51.9557 14.4804 54.0431 14.4804C56.0765 14.4804 57.4542 16.1515 57.4542 18.3952C57.4542 20.6382 56.0765 22.3109 54.0431 22.3109Z" fill="white"/>
    <path d="M64.2051 4.39043H67.7652V25.5092H64.2051V4.39043Z" fill="white"/>
    <path d="M80.6014 15.2551C79.5513 14.6985 77.8724 14.1114 76.3856 14.0969C75.0349 14.0969 74.3518 14.6102 74.3518 15.3881C74.3518 16.2077 75.3074 16.4136 76.5079 16.604L77.6818 16.7955C80.547 17.2649 82.1433 18.6425 82.1433 21.0482C82.1433 23.9815 79.9055 25.8739 76.0712 25.8739C74.2704 25.8739 71.9098 25.5073 70.1904 24.2009L71.5968 21.2985C72.7291 22.104 74.1071 22.6911 76.099 22.6911C77.7497 22.6911 78.5417 22.1937 78.5417 21.3578C78.5417 20.6675 77.8724 20.2853 76.3447 20.0513L75.2671 19.89C72.211 19.4359 70.6964 17.9987 70.6964 15.5773C70.6964 12.6601 72.7967 10.9297 76.2767 10.9297C78.3916 10.9297 80.0424 11.3555 81.8023 12.2786L80.6014 15.2551Z" fill="white"/>
</svg>