<svg width="19" height="11" viewBox="0 0 19 11" fill="none" xmlns="http://www.w3.org/2000/svg">
<path d="M10.4137 5.03628C10.4132 5.39906 10.2679 5.74683 10.0098 6.00312C9.75175 6.25939 9.40189 6.40305 9.03734 6.40278C8.6728 6.40239 8.32321 6.25795 8.06568 6.0013C7.80803 5.74451 7.66341 5.39648 7.66354 5.03369C7.6638 4.67091 7.80869 4.32301 8.06658 4.06649C8.32435 3.80996 8.67407 3.6659 9.03861 3.6659C9.40368 3.6659 9.75368 3.81034 10.0116 4.06738C10.2696 4.32443 10.4142 4.67297 10.4137 5.03628H10.4137ZM17.8834 5.58325C16.5111 7.41985 14.5959 8.78324 12.4061 9.48243C10.2162 10.1816 7.86138 10.1816 5.6716 9.48243C3.48171 8.78314 1.56637 7.41972 0.194304 5.58325C0.0681473 5.41603 0 5.21255 0 5.00341C0 4.79427 0.0681507 4.5908 0.194304 4.42357C1.56654 2.58697 3.48174 1.22358 5.6716 0.524391C7.86148 -0.174797 10.2163 -0.174797 12.4061 0.524391C14.596 1.22368 16.5113 2.5871 17.8834 4.42357C18.0095 4.59079 18.0777 4.79427 18.0777 5.00341C18.0777 5.21255 18.0095 5.41602 17.8834 5.58325ZM12.4707 5.03628C12.4712 4.1304 12.11 3.26144 11.4667 2.6205C10.8234 1.97969 9.95045 1.61936 9.04018 1.6191C8.1299 1.61871 7.25672 1.97827 6.61293 2.61868C5.96902 3.25908 5.6072 4.12782 5.60707 5.03369C5.60681 5.93957 5.96838 6.8084 6.61203 7.44908C7.25555 8.08962 8.12864 8.44955 9.03891 8.44955C9.94838 8.44852 10.8204 8.08869 11.4638 7.44881C12.1071 6.80893 12.4692 5.94136 12.4707 5.03628H12.4707Z" fill="#003251"/>
</svg>
