<svg width="675" height="867" viewBox="0 0 675 867" fill="none" xmlns="http://www.w3.org/2000/svg">
<rect width="675" height="867" fill="#5AB2B9"/>
<mask id="mask0_239_1119" style="mask-type:alpha" maskUnits="userSpaceOnUse" x="0" y="0" width="675" height="867">
<rect width="675" height="867" fill="white"/>
</mask>
<g mask="url(#mask0_239_1119)">
<g style="mix-blend-mode:soft-light" opacity="0.106492">
<path fill-rule="evenodd" clip-rule="evenodd" d="M-2.97025 144.273H147.089V-5.76416H-2.97025V144.273Z" fill="#030F4B"/>
<path fill-rule="evenodd" clip-rule="evenodd" d="M146.93 69.544C146.93 110.958 113.362 144.531 71.9539 144.531C30.5474 144.531 -3.02081 110.958 -3.02081 69.544C-3.02081 28.13 30.5474 -5.44287 71.9539 -5.44287C113.362 -5.44287 146.93 28.13 146.93 69.544Z" fill="#FFF9DF"/>
<mask id="mask1_239_1119" style="mask-type:alpha" maskUnits="userSpaceOnUse" x="-78" y="-89" width="1507" height="1096">
<path fill-rule="evenodd" clip-rule="evenodd" d="M-78 1006.98H1428.5V-89H-78V1006.98Z" fill="white"/>
</mask>
<g mask="url(#mask1_239_1119)">
<path fill-rule="evenodd" clip-rule="evenodd" d="M-3.02531 144.529H71.9548V-5.44287H-3.02531V144.529Z" fill="#00599B"/>
<path fill-rule="evenodd" clip-rule="evenodd" d="M-3.02531 144.529H71.9548V-5.44287H-3.02531V144.529Z" fill="black"/>
<path fill-rule="evenodd" clip-rule="evenodd" d="M71.953 144.53L146.929 219.517L71.9548 294.5L-3.02171 219.513L71.9512 144.53H-3.02351V294.502H146.933V144.53H71.953Z" fill="#EE2A2E"/>
<path fill-rule="evenodd" clip-rule="evenodd" d="M71.953 217.26L146.929 255.881L71.9548 294.5L-3.02171 255.879L71.9512 217.26H-3.02351V294.502H146.933V217.26H71.953Z" fill="#030F4B"/>
<path fill-rule="evenodd" clip-rule="evenodd" d="M71.9557 294.5L146.93 219.517L71.9539 144.53H71.9521L-3.02081 219.513L71.9557 294.5Z" fill="#FFF9DF"/>
<path fill-rule="evenodd" clip-rule="evenodd" d="M136.172 219.516L71.9521 155.289L7.73792 219.514L71.9557 283.741L136.172 219.516Z" fill="#030F4B"/>
<path fill-rule="evenodd" clip-rule="evenodd" d="M125.858 219.516L71.9514 165.602L18.0497 219.514L71.955 273.427L125.858 219.516Z" fill="#CBCBBF"/>
<path fill-rule="evenodd" clip-rule="evenodd" d="M296.889 669.45L221.915 594.464L146.94 669.449L221.918 744.434L296.889 669.452V744.437H146.94V594.46H296.889V669.45Z" fill="#030F4B"/>
<path fill-rule="evenodd" clip-rule="evenodd" d="M224.171 669.45L185.554 594.464L146.94 669.449L185.557 744.434L224.171 669.452V744.437H146.94V594.46H224.171V669.45Z" fill="#CBCBBF"/>
<path fill-rule="evenodd" clip-rule="evenodd" d="M146.94 669.449L221.915 594.464L296.889 669.451V669.453L221.918 744.434L146.94 669.449Z" fill="#EE2A2E"/>
<path fill-rule="evenodd" clip-rule="evenodd" d="M221.915 605.223L286.132 669.452L221.918 733.675L157.697 669.45L221.915 605.223Z" fill="#CBCBBF"/>
<path fill-rule="evenodd" clip-rule="evenodd" d="M221.915 615.538L275.82 669.452L221.918 723.361L168.013 669.449L221.915 615.538Z" fill="#FFF9DF"/>
<path fill-rule="evenodd" clip-rule="evenodd" d="M596.778 894.409H746.736V744.437H596.778V894.409Z" fill="#EE2A2E"/>
<path fill-rule="evenodd" clip-rule="evenodd" d="M596.778 744.438V894.41H746.736" fill="#030F4B"/>
<path fill-rule="evenodd" clip-rule="evenodd" d="M296.882 144.529H446.841V-5.44287H296.882V144.529Z" fill="#00599B"/>
</g>
<mask id="mask2_239_1119" style="mask-type:alpha" maskUnits="userSpaceOnUse" x="371" y="-5" width="76" height="75">
<path fill-rule="evenodd" clip-rule="evenodd" d="M371.728 -4.9751H446.619V69.9032H371.728V-4.9751Z" fill="white"/>
</mask>
<g mask="url(#mask2_239_1119)">
<path fill-rule="evenodd" clip-rule="evenodd" d="M521.511 -4.97581C521.511 36.3795 487.98 69.9034 446.619 69.9034C405.257 69.9034 371.728 36.3795 371.728 -4.97581C371.728 -46.3312 405.257 -79.855 446.619 -79.855C487.98 -79.855 521.511 -46.3312 521.511 -4.97581Z" fill="#FFF9DF"/>
</g>
<mask id="mask3_239_1119" style="mask-type:alpha" maskUnits="userSpaceOnUse" x="296" y="69" width="76" height="76">
<path fill-rule="evenodd" clip-rule="evenodd" d="M296.836 69.8979H371.728V144.778H296.836V69.8979Z" fill="white"/>
</mask>
<g mask="url(#mask3_239_1119)">
<path fill-rule="evenodd" clip-rule="evenodd" d="M371.728 144.777C371.728 186.132 338.198 219.656 296.836 219.656C255.474 219.656 221.945 186.132 221.945 144.777C221.945 103.422 255.474 69.8979 296.836 69.8979C338.198 69.8979 371.728 103.422 371.728 144.777Z" fill="#FFF9DF"/>
</g>
<mask id="mask4_239_1119" style="mask-type:alpha" maskUnits="userSpaceOnUse" x="296" y="97" width="48" height="48">
<path fill-rule="evenodd" clip-rule="evenodd" d="M296.836 97.7808H343.84V144.778H296.836V97.7808Z" fill="white"/>
</mask>
<g mask="url(#mask4_239_1119)">
<path fill-rule="evenodd" clip-rule="evenodd" d="M343.84 144.777C343.84 170.732 322.795 191.773 296.837 191.773C270.878 191.773 249.833 170.732 249.833 144.777C249.833 118.822 270.878 97.7808 296.837 97.7808C322.795 97.7808 343.84 118.822 343.84 144.777Z" fill="#030F4B"/>
</g>
<path fill-rule="evenodd" clip-rule="evenodd" d="M447.208 144.273H597.268V-5.76416H447.208V144.273Z" fill="#FFF9DF"/>
<mask id="mask5_239_1119" style="mask-type:alpha" maskUnits="userSpaceOnUse" x="446" y="-5" width="76" height="75">
<path fill-rule="evenodd" clip-rule="evenodd" d="M446.585 -4.9751H521.493V69.9032H446.585V-4.9751Z" fill="white"/>
</mask>
<g mask="url(#mask5_239_1119)">
<path fill-rule="evenodd" clip-rule="evenodd" d="M371.678 -4.97581C371.678 36.3795 405.216 69.9034 446.585 69.9034C487.957 69.9034 521.493 36.3795 521.493 -4.97581C521.493 -46.3312 487.957 -79.855 446.585 -79.855C405.216 -79.855 371.678 -46.3312 371.678 -4.97581Z" fill="#EE2A2E"/>
</g>
<mask id="mask6_239_1119" style="mask-type:alpha" maskUnits="userSpaceOnUse" x="521" y="69" width="76" height="76">
<path fill-rule="evenodd" clip-rule="evenodd" d="M521.491 69.8979H596.399V144.778H521.491V69.8979Z" fill="white"/>
</mask>
<g mask="url(#mask6_239_1119)">
<path fill-rule="evenodd" clip-rule="evenodd" d="M521.491 144.777C521.491 186.132 555.029 219.656 596.401 219.656C637.77 219.656 671.308 186.132 671.308 144.777C671.308 103.422 637.77 69.8979 596.401 69.8979C555.029 69.8979 521.491 103.422 521.491 144.777Z" fill="#030F4B"/>
</g>
<mask id="mask7_239_1119" style="mask-type:alpha" maskUnits="userSpaceOnUse" x="538" y="86" width="59" height="59">
<path fill-rule="evenodd" clip-rule="evenodd" d="M538.583 86.9824H596.399V144.778H538.583V86.9824Z" fill="white"/>
</mask>
<g mask="url(#mask7_239_1119)">
<path fill-rule="evenodd" clip-rule="evenodd" d="M538.583 144.777C538.583 176.696 564.468 202.572 596.401 202.572C628.33 202.572 654.215 176.696 654.215 144.777C654.215 112.858 628.33 86.9824 596.401 86.9824C564.468 86.9824 538.583 112.858 538.583 144.777Z" fill="#FFF9DF"/>
</g>
<path fill-rule="evenodd" clip-rule="evenodd" d="M-2.97025 444.346H147.089V294.31H-2.97025V444.346Z" fill="#FFF9DF"/>
<mask id="mask8_239_1119" style="mask-type:alpha" maskUnits="userSpaceOnUse" x="72" y="369" width="76" height="76">
<path fill-rule="evenodd" clip-rule="evenodd" d="M72.2177 369.376H147.125V444.256H72.2177V369.376Z" fill="white"/>
</mask>
<g mask="url(#mask8_239_1119)">
<path fill-rule="evenodd" clip-rule="evenodd" d="M147.124 519.136C105.754 519.136 72.2177 485.61 72.2177 444.255C72.2177 402.9 105.754 369.376 147.124 369.376C188.495 369.376 222.031 402.9 222.031 444.255C222.031 485.61 188.495 519.136 147.124 519.136Z" fill="#EE2A2E"/>
</g>
<mask id="mask9_239_1119" style="mask-type:alpha" maskUnits="userSpaceOnUse" x="-3" y="294" width="76" height="76">
<path fill-rule="evenodd" clip-rule="evenodd" d="M-2.68438 294.496H72.2231V369.376H-2.68438V294.496Z" fill="white"/>
</mask>
<g mask="url(#mask9_239_1119)">
<path fill-rule="evenodd" clip-rule="evenodd" d="M-2.68348 369.376C-44.0539 369.376 -77.59 335.851 -77.59 294.495C-77.59 253.14 -44.0539 219.616 -2.68348 219.616C38.687 219.616 72.2231 253.14 72.2231 294.495C72.2231 335.851 38.687 369.376 -2.68348 369.376Z" fill="#EE2A2E"/>
</g>
<path fill-rule="evenodd" clip-rule="evenodd" d="M-2.97025 594.383H147.089V444.346H-2.97025V594.383Z" fill="#EE2A2E"/>
<mask id="mask10_239_1119" style="mask-type:alpha" maskUnits="userSpaceOnUse" x="72" y="444" width="76" height="76">
<path fill-rule="evenodd" clip-rule="evenodd" d="M72.2177 444.222H147.125V519.102H72.2177V444.222Z" fill="white"/>
</mask>
<g mask="url(#mask10_239_1119)">
<path fill-rule="evenodd" clip-rule="evenodd" d="M147.124 369.342C105.754 369.342 72.2177 402.867 72.2177 444.221C72.2177 485.578 105.754 519.102 147.124 519.102C188.495 519.102 222.031 485.578 222.031 444.221C222.031 402.867 188.495 369.342 147.124 369.342Z" fill="#030F4B"/>
</g>
<mask id="mask11_239_1119" style="mask-type:alpha" maskUnits="userSpaceOnUse" x="-3" y="519" width="76" height="75">
<path fill-rule="evenodd" clip-rule="evenodd" d="M-2.68438 519.1H72.2231V593.982H-2.68438V519.1Z" fill="white"/>
</mask>
<g mask="url(#mask11_239_1119)">
<path fill-rule="evenodd" clip-rule="evenodd" d="M-2.68348 519.1C-44.0539 519.1 -77.59 552.626 -77.59 593.983C-77.59 635.336 -44.0539 668.862 -2.68348 668.862C38.687 668.862 72.2231 635.336 72.2231 593.983C72.2231 552.626 38.687 519.1 -2.68348 519.1Z" fill="#00599B"/>
</g>
<mask id="mask12_239_1119" style="mask-type:alpha" maskUnits="userSpaceOnUse" x="-3" y="536" width="59" height="58">
<path fill-rule="evenodd" clip-rule="evenodd" d="M-2.68438 536.186H55.1323V593.982H-2.68438V536.186Z" fill="white"/>
</mask>
<g mask="url(#mask12_239_1119)">
<path fill-rule="evenodd" clip-rule="evenodd" d="M-2.68347 536.186C-34.6142 536.186 -60.4993 562.062 -60.4993 593.983C-60.4993 625.9 -34.6142 651.775 -2.68347 651.775C29.2473 651.775 55.1324 625.9 55.1324 593.983C55.1324 562.062 29.2473 536.186 -2.68347 536.186Z" fill="#EE2A2E"/>
</g>
<path fill-rule="evenodd" clip-rule="evenodd" d="M147.089 594.383H297.149V444.346H147.089V594.383Z" fill="#FFF9DF"/>
<mask id="mask13_239_1119" style="mask-type:alpha" maskUnits="userSpaceOnUse" x="147" y="444" width="75" height="76">
<path fill-rule="evenodd" clip-rule="evenodd" d="M147.098 444.224H221.989V519.102H147.098V444.224Z" fill="white"/>
</mask>
<g mask="url(#mask13_239_1119)">
<path fill-rule="evenodd" clip-rule="evenodd" d="M147.098 369.342C188.46 369.342 221.989 402.867 221.989 444.223C221.989 485.578 188.46 519.102 147.098 519.102C105.736 519.102 72.2075 485.578 72.2075 444.223C72.2075 402.867 105.736 369.342 147.098 369.342Z" fill="#00599B"/>
</g>
<mask id="mask14_239_1119" style="mask-type:alpha" maskUnits="userSpaceOnUse" x="221" y="519" width="76" height="75">
<path fill-rule="evenodd" clip-rule="evenodd" d="M221.983 519.102H296.876V593.982H221.983V519.102Z" fill="white"/>
</mask>
<g mask="url(#mask14_239_1119)">
<path fill-rule="evenodd" clip-rule="evenodd" d="M296.874 519.102C338.235 519.102 371.764 552.627 371.764 593.983C371.764 635.338 338.235 668.864 296.874 668.864C255.512 668.864 221.983 635.338 221.983 593.983C221.983 552.627 255.512 519.102 296.874 519.102Z" fill="#CBCBBF"/>
</g>
<path fill-rule="evenodd" clip-rule="evenodd" d="M147.089 444.346H297.149V294.31H147.089V444.346Z" fill="#CBCBBF"/>
<mask id="mask15_239_1119" style="mask-type:alpha" maskUnits="userSpaceOnUse" x="147" y="369" width="75" height="76">
<path fill-rule="evenodd" clip-rule="evenodd" d="M147.098 369.376H221.989V444.258H147.098V369.376Z" fill="white"/>
</mask>
<g mask="url(#mask15_239_1119)">
<path fill-rule="evenodd" clip-rule="evenodd" d="M147.098 519.136C188.46 519.136 221.989 485.61 221.989 444.257C221.989 402.9 188.46 369.376 147.098 369.376C105.736 369.376 72.2075 402.9 72.2075 444.257C72.2075 485.61 105.736 519.136 147.098 519.136Z" fill="#FFF9DF"/>
</g>
<mask id="mask16_239_1119" style="mask-type:alpha" maskUnits="userSpaceOnUse" x="221" y="294" width="76" height="76">
<path fill-rule="evenodd" clip-rule="evenodd" d="M221.983 294.496H296.876V369.378H221.983V294.496Z" fill="white"/>
</mask>
<g mask="url(#mask16_239_1119)">
<path fill-rule="evenodd" clip-rule="evenodd" d="M296.874 369.378C338.235 369.378 371.764 335.853 371.764 294.495C371.764 253.142 338.235 219.616 296.874 219.616C255.512 219.616 221.983 253.142 221.983 294.495C221.983 335.853 255.512 369.378 296.874 369.378Z" fill="#00599B"/>
</g>
<mask id="mask17_239_1119" style="mask-type:alpha" maskUnits="userSpaceOnUse" x="239" y="294" width="58" height="59">
<path fill-rule="evenodd" clip-rule="evenodd" d="M239.07 294.496H296.876V352.292H239.07V294.496Z" fill="white"/>
</mask>
<g mask="url(#mask17_239_1119)">
<path fill-rule="evenodd" clip-rule="evenodd" d="M296.874 352.292C328.798 352.292 354.677 326.416 354.677 294.496C354.677 262.578 328.798 236.703 296.874 236.703C264.95 236.703 239.07 262.578 239.07 294.496C239.07 326.416 264.95 352.292 296.874 352.292Z" fill="#EE2A2E"/>
</g>
<path fill-rule="evenodd" clip-rule="evenodd" d="M596.674 144.074H746.593V-5.89062H596.674V144.074Z" fill="#CBCBBF"/>
<path fill-rule="evenodd" clip-rule="evenodd" d="M596.674 144.075L634.277 68.9243L671.884 144.075H596.674Z" fill="#FFF9DF"/>
<path fill-rule="evenodd" clip-rule="evenodd" d="M671.883 144.075L709.488 68.9243L747.095 144.075H671.883Z" fill="#FFF9DF"/>
<path fill-rule="evenodd" clip-rule="evenodd" d="M596.674 68.9246L634.277 -6.22607L671.884 68.9246H596.674Z" fill="#FFF9DF"/>
<path fill-rule="evenodd" clip-rule="evenodd" d="M671.883 68.9246L709.488 -6.22607L747.095 68.9246H671.883Z" fill="#FFF9DF"/>
<path fill-rule="evenodd" clip-rule="evenodd" d="M296.842 444.018H446.753V294.046H296.842V444.018Z" fill="#EE2A2E"/>
<path fill-rule="evenodd" clip-rule="evenodd" d="M296.67 293.786L371.794 331.403L296.67 369.023V293.786Z" fill="#FFF9DF"/>
<path fill-rule="evenodd" clip-rule="evenodd" d="M296.67 369.022L371.794 406.641L296.67 444.261V369.022Z" fill="#FFF9DF"/>
<path fill-rule="evenodd" clip-rule="evenodd" d="M371.794 293.786L446.918 331.403L371.794 369.023V293.786Z" fill="#030F4B"/>
<path fill-rule="evenodd" clip-rule="evenodd" d="M371.794 369.022L446.918 406.641L371.794 444.261V369.022Z" fill="#030F4B"/>
<path fill-rule="evenodd" clip-rule="evenodd" d="M596.353 744.42H746.412V594.383H596.353V744.42Z" fill="#030F4B"/>
<mask id="mask18_239_1119" style="mask-type:alpha" maskUnits="userSpaceOnUse" x="597" y="594" width="46" height="47">
<path fill-rule="evenodd" clip-rule="evenodd" d="M597.289 594.871H642.99V640.594H597.289V594.871Z" fill="white"/>
</mask>
<g mask="url(#mask18_239_1119)">
<path fill-rule="evenodd" clip-rule="evenodd" d="M642.99 607.179C642.99 625.634 628.039 640.594 609.594 640.594C591.147 640.594 576.196 625.634 576.196 607.179C576.196 588.723 591.147 573.764 609.594 573.764C628.039 573.764 642.99 588.723 642.99 607.179Z" fill="#EE2A2E"/>
</g>
<mask id="mask19_239_1119" style="mask-type:alpha" maskUnits="userSpaceOnUse" x="647" y="594" width="46" height="47">
<path fill-rule="evenodd" clip-rule="evenodd" d="M647.183 594.871H692.917V640.594H647.183V594.871Z" fill="white"/>
</mask>
<g mask="url(#mask19_239_1119)">
<path fill-rule="evenodd" clip-rule="evenodd" d="M692.917 607.179C692.917 625.634 677.956 640.594 659.497 640.594C641.037 640.594 626.075 625.634 626.075 607.179C626.075 588.723 641.037 573.764 659.497 573.764C677.956 573.764 692.917 588.723 692.917 607.179Z" fill="#FFF9DF"/>
</g>
<mask id="mask20_239_1119" style="mask-type:alpha" maskUnits="userSpaceOnUse" x="597" y="644" width="46" height="47">
<path fill-rule="evenodd" clip-rule="evenodd" d="M597.289 644.618H642.99V690.309H597.289V644.618Z" fill="white"/>
</mask>
<g mask="url(#mask20_239_1119)">
<path fill-rule="evenodd" clip-rule="evenodd" d="M642.99 656.918C642.99 675.361 628.039 690.309 609.594 690.309C591.147 690.309 576.196 675.361 576.196 656.918C576.196 638.476 591.147 623.527 609.594 623.527C628.039 623.527 642.99 638.476 642.99 656.918Z" fill="#EE2A2E"/>
</g>
<mask id="mask21_239_1119" style="mask-type:alpha" maskUnits="userSpaceOnUse" x="647" y="644" width="46" height="47">
<path fill-rule="evenodd" clip-rule="evenodd" d="M647.183 644.618H692.917V690.309H647.183V644.618Z" fill="white"/>
</mask>
<g mask="url(#mask21_239_1119)">
<path fill-rule="evenodd" clip-rule="evenodd" d="M692.917 656.918C692.917 675.361 677.956 690.309 659.497 690.309C641.037 690.309 626.075 675.361 626.075 656.918C626.075 638.476 641.037 623.527 659.497 623.527C677.956 623.527 692.917 638.476 692.917 656.918Z" fill="#FFF9DF"/>
</g>
<mask id="mask22_239_1119" style="mask-type:alpha" maskUnits="userSpaceOnUse" x="597" y="694" width="46" height="47">
<path fill-rule="evenodd" clip-rule="evenodd" d="M597.289 694.37H642.99V740.058H597.289V694.37Z" fill="white"/>
</mask>
<g mask="url(#mask22_239_1119)">
<path fill-rule="evenodd" clip-rule="evenodd" d="M642.99 706.668C642.99 725.11 628.039 740.058 609.594 740.058C591.147 740.058 576.196 725.11 576.196 706.668C576.196 688.225 591.147 673.277 609.594 673.277C628.039 673.277 642.99 688.225 642.99 706.668Z" fill="#EE2A2E"/>
</g>
<mask id="mask23_239_1119" style="mask-type:alpha" maskUnits="userSpaceOnUse" x="647" y="694" width="46" height="47">
<path fill-rule="evenodd" clip-rule="evenodd" d="M647.183 694.37H692.917V740.058H647.183V694.37Z" fill="white"/>
</mask>
<g mask="url(#mask23_239_1119)">
<path fill-rule="evenodd" clip-rule="evenodd" d="M692.917 706.668C692.917 725.11 677.956 740.058 659.497 740.058C641.037 740.058 626.075 725.11 626.075 706.668C626.075 688.225 641.037 673.277 659.497 673.277C677.956 673.277 692.917 688.225 692.917 706.668Z" fill="#FFF9DF"/>
</g>
<path fill-rule="evenodd" clip-rule="evenodd" d="M296.847 894.377H446.735V744.331H296.847V894.377Z" fill="#00599B"/>
<path fill-rule="evenodd" clip-rule="evenodd" d="M446.735 894.378H371.621L446.735 745.84V894.378Z" fill="#030F4B"/>
<path fill-rule="evenodd" clip-rule="evenodd" d="M296.847 744.332H371.959L296.847 892.869V744.332Z" fill="#FFF9DF"/>
<path fill-rule="evenodd" clip-rule="evenodd" d="M296.847 744.332H334.739L296.847 819.267V744.332Z" fill="#EE2A2E"/>
<path fill-rule="evenodd" clip-rule="evenodd" d="M596.619 444.244L596.62 294.197H446.731V444.244H596.619Z" fill="#FFF9DF"/>
<path fill-rule="evenodd" clip-rule="evenodd" d="M446.732 294.197H521.842L446.732 442.735V294.197Z" fill="#CBCBBF"/>
<path fill-rule="evenodd" clip-rule="evenodd" d="M596.619 444.244H521.507L596.62 295.706L596.619 444.244Z" fill="#030F4B"/>
<path fill-rule="evenodd" clip-rule="evenodd" d="M596.619 444.244H521.507L596.62 295.706L596.619 444.244Z" fill="black"/>
<path fill-rule="evenodd" clip-rule="evenodd" d="M147.281 294.719H297.249V144.747H147.281V294.719Z" fill="#CBCBBF"/>
<path fill-rule="evenodd" clip-rule="evenodd" d="M222.265 294.717H297.169L259.717 219.731L222.265 294.717Z" fill="#00599B"/>
<path fill-rule="evenodd" clip-rule="evenodd" d="M147.361 294.717H222.265L184.813 219.731L147.361 294.717Z" fill="#00599B"/>
<path fill-rule="evenodd" clip-rule="evenodd" d="M147.361 144.744L184.813 219.731L222.265 144.744H147.361Z" fill="#FFF9DF"/>
<path fill-rule="evenodd" clip-rule="evenodd" d="M297.169 144.744H222.265L259.717 219.731L297.169 144.744Z" fill="#FFF9DF"/>
<path fill-rule="evenodd" clip-rule="evenodd" d="M222.265 144.744L184.813 219.731L222.265 294.716L259.717 219.731L222.265 144.744Z" fill="#EE2A2E"/>
<path fill-rule="evenodd" clip-rule="evenodd" d="M297.238 294.719H447.208V144.747H297.238V294.719Z" fill="#FFF9DF"/>
<path fill-rule="evenodd" clip-rule="evenodd" d="M297.202 159.957C297.202 159.957 303.409 225.067 372.225 213.679L297.202 159.957Z" fill="#EE2A2E"/>
<path fill-rule="evenodd" clip-rule="evenodd" d="M297.202 159.956C297.202 159.956 360.834 144.859 372.221 213.678L297.202 159.956Z" fill="#030F4B"/>
<path fill-rule="evenodd" clip-rule="evenodd" d="M447.245 159.957C447.245 159.957 441.039 225.067 372.223 213.679L447.245 159.957Z" fill="#EE2A2E"/>
<path fill-rule="evenodd" clip-rule="evenodd" d="M447.245 159.956C447.245 159.956 383.614 144.859 372.226 213.678L447.245 159.956Z" fill="#030F4B"/>
<path fill-rule="evenodd" clip-rule="evenodd" d="M297.202 221.343C297.202 221.343 303.409 286.454 372.225 275.065L297.202 221.343Z" fill="#EE2A2E"/>
<path fill-rule="evenodd" clip-rule="evenodd" d="M297.202 221.343C297.202 221.343 360.834 206.246 372.221 275.065L297.202 221.343Z" fill="#030F4B"/>
<path fill-rule="evenodd" clip-rule="evenodd" d="M447.245 221.343C447.245 221.343 441.039 286.454 372.223 275.065L447.245 221.343Z" fill="#EE2A2E"/>
<path fill-rule="evenodd" clip-rule="evenodd" d="M447.245 221.343C447.245 221.343 383.614 206.246 372.226 275.065L447.245 221.343Z" fill="#030F4B"/>
<path fill-rule="evenodd" clip-rule="evenodd" d="M370.853 294.718H373.594V144.745H370.853V294.718Z" fill="#030F4B"/>
<path fill-rule="evenodd" clip-rule="evenodd" d="M-2.68495 744.651H147.285V594.681H-2.68495V744.651Z" fill="#00599B"/>
<path fill-rule="evenodd" clip-rule="evenodd" d="M-2.72346 609.891C-2.72346 609.891 3.48313 675.001 72.3009 663.613L-2.72346 609.891Z" fill="#030F4B"/>
<path fill-rule="evenodd" clip-rule="evenodd" d="M-2.72346 609.89C-2.72346 609.89 60.9099 594.793 72.2973 663.612L-2.72346 609.89Z" fill="#FFF9DF"/>
<path fill-rule="evenodd" clip-rule="evenodd" d="M147.32 609.891C147.32 609.891 141.113 675.001 72.299 663.613L147.32 609.891Z" fill="#030F4B"/>
<path fill-rule="evenodd" clip-rule="evenodd" d="M147.32 609.89C147.32 609.89 83.69 594.793 72.3008 663.612L147.32 609.89Z" fill="#FFF9DF"/>
<path fill-rule="evenodd" clip-rule="evenodd" d="M-2.72346 671.276C-2.72346 671.276 3.48313 736.389 72.3009 725L-2.72346 671.276Z" fill="#030F4B"/>
<path fill-rule="evenodd" clip-rule="evenodd" d="M-2.72346 671.277C-2.72346 671.277 60.9099 656.179 72.2973 725L-2.72346 671.277Z" fill="#FFF9DF"/>
<path fill-rule="evenodd" clip-rule="evenodd" d="M147.32 671.276C147.32 671.276 141.113 736.389 72.299 725L147.32 671.276Z" fill="#030F4B"/>
<path fill-rule="evenodd" clip-rule="evenodd" d="M147.32 671.277C147.32 671.277 83.69 656.179 72.3008 725L147.32 671.277Z" fill="#FFF9DF"/>
<path fill-rule="evenodd" clip-rule="evenodd" d="M70.9286 744.651H73.6693V594.677H70.9286V744.651Z" fill="#FFF9DF"/>
<path fill-rule="evenodd" clip-rule="evenodd" d="M447.206 294.725H597.174V144.752H447.206V294.725Z" fill="#030F4B"/>
<path fill-rule="evenodd" clip-rule="evenodd" d="M447.209 219.738H597.17V144.747H447.209V219.738Z" fill="black"/>
<path fill-rule="evenodd" clip-rule="evenodd" d="M447.206 294.723H522.191V219.738H447.206V294.723Z" fill="#EE2A2E"/>
<path fill-rule="evenodd" clip-rule="evenodd" d="M447.206 219.734H522.191V144.749H447.206V219.734Z" fill="#00599B"/>
<path fill-rule="evenodd" clip-rule="evenodd" d="M597.174 294.725H747.142V144.752H597.174V294.725Z" fill="#EE2A2E"/>
<path fill-rule="evenodd" clip-rule="evenodd" d="M596.736 145.126C596.736 145.126 591.577 219.81 671.411 219.81L596.736 145.126Z" fill="#030F4B"/>
<path fill-rule="evenodd" clip-rule="evenodd" d="M596.734 145.127C596.734 145.127 671.408 139.969 671.41 219.81L596.734 145.127Z" fill="#FFF9DF"/>
<path fill-rule="evenodd" clip-rule="evenodd" d="M746.688 145.126C746.688 145.126 751.85 219.81 671.994 219.81L746.688 145.126Z" fill="#030F4B"/>
<path fill-rule="evenodd" clip-rule="evenodd" d="M746.691 145.127C746.691 145.127 671.997 139.969 671.993 219.81L746.691 145.127Z" fill="#FFF9DF"/>
<path fill-rule="evenodd" clip-rule="evenodd" d="M746.688 294.135C746.688 294.135 751.85 219.473 671.994 219.473L746.688 294.135Z" fill="#030F4B"/>
<path fill-rule="evenodd" clip-rule="evenodd" d="M746.691 294.135C746.691 294.135 671.997 299.292 671.993 219.473L746.691 294.135Z" fill="#FFF9DF"/>
<path fill-rule="evenodd" clip-rule="evenodd" d="M596.736 294.135C596.736 294.135 591.577 219.473 671.411 219.473L596.736 294.135Z" fill="#030F4B"/>
<path fill-rule="evenodd" clip-rule="evenodd" d="M596.734 294.135C596.734 294.135 671.408 299.292 671.41 219.473L596.734 294.135Z" fill="#FFF9DF"/>
<path fill-rule="evenodd" clip-rule="evenodd" d="M447.208 894.456H597.268V744.419H447.208V894.456Z" fill="#00599B"/>
<path fill-rule="evenodd" clip-rule="evenodd" d="M446.94 744.993C446.94 744.993 441.779 819.655 521.636 819.655L446.94 744.993Z" fill="#EE2A2E"/>
<path fill-rule="evenodd" clip-rule="evenodd" d="M446.938 744.993C446.938 744.993 521.632 739.837 521.634 819.656L446.938 744.993Z" fill="#030F4B"/>
<path fill-rule="evenodd" clip-rule="evenodd" d="M596.892 744.993C596.892 744.993 602.052 819.655 522.218 819.655L596.892 744.993Z" fill="#EE2A2E"/>
<path fill-rule="evenodd" clip-rule="evenodd" d="M596.895 744.993C596.895 744.993 522.222 739.837 522.218 819.656L596.895 744.993Z" fill="#FFF9DF"/>
<path fill-rule="evenodd" clip-rule="evenodd" d="M596.892 894.003C596.892 894.003 602.052 819.319 522.218 819.319L596.892 894.003Z" fill="#EE2A2E"/>
<path fill-rule="evenodd" clip-rule="evenodd" d="M596.895 894.003C596.895 894.003 522.222 899.16 522.218 819.319L596.895 894.003Z" fill="#030F4B"/>
<path fill-rule="evenodd" clip-rule="evenodd" d="M446.94 894.003C446.94 894.003 441.779 819.319 521.636 819.319L446.94 894.003Z" fill="#EE2A2E"/>
<path fill-rule="evenodd" clip-rule="evenodd" d="M446.938 894.003C446.938 894.003 521.632 899.16 521.634 819.319L446.938 894.003Z" fill="#FFF9DF"/>
<path fill-rule="evenodd" clip-rule="evenodd" d="M297.149 594.383H447.208V444.346H297.149V594.383Z" fill="#CBCBBF"/>
<mask id="mask24_239_1119" style="mask-type:alpha" maskUnits="userSpaceOnUse" x="296" y="444" width="151" height="150">
<path fill-rule="evenodd" clip-rule="evenodd" d="M296.841 444.231H446.624V593.982H296.841V444.231Z" fill="white"/>
</mask>
<g mask="url(#mask24_239_1119)">
<path fill-rule="evenodd" clip-rule="evenodd" d="M371.732 444.231L446.619 519.108L371.733 593.984L296.845 519.105L371.728 444.231H296.841V593.984H446.624V444.231H371.732Z" fill="#CBCBBF"/>
</g>
<mask id="mask25_239_1119" style="mask-type:alpha" maskUnits="userSpaceOnUse" x="296" y="444" width="151" height="150">
<path fill-rule="evenodd" clip-rule="evenodd" d="M296.841 444.231H446.624V593.982H296.841V444.231Z" fill="white"/>
</mask>
<g mask="url(#mask25_239_1119)">
<path fill-rule="evenodd" clip-rule="evenodd" d="M371.735 645.332L497.977 519.109L371.732 392.881H371.724L245.488 519.104L371.735 645.332Z" fill="#EE2A2E"/>
</g>
<mask id="mask26_239_1119" style="mask-type:alpha" maskUnits="userSpaceOnUse" x="296" y="444" width="151" height="150">
<path fill-rule="evenodd" clip-rule="evenodd" d="M296.841 444.231H446.624V593.982H296.841V444.231Z" fill="white"/>
</mask>
<g mask="url(#mask26_239_1119)">
<path fill-rule="evenodd" clip-rule="evenodd" d="M479.86 519.108L371.728 410.991L263.602 519.104L371.735 627.22L479.86 519.108Z" fill="#00599B"/>
</g>
<mask id="mask27_239_1119" style="mask-type:alpha" maskUnits="userSpaceOnUse" x="296" y="444" width="151" height="150">
<path fill-rule="evenodd" clip-rule="evenodd" d="M296.841 444.231H446.624V593.982H296.841V444.231Z" fill="white"/>
</mask>
<g mask="url(#mask27_239_1119)">
<path fill-rule="evenodd" clip-rule="evenodd" d="M462.498 519.108L371.728 428.354L280.965 519.104L371.732 609.857L462.498 519.108Z" fill="#CBCBBF"/>
</g>
<mask id="mask28_239_1119" style="mask-type:alpha" maskUnits="userSpaceOnUse" x="296" y="444" width="151" height="150">
<path fill-rule="evenodd" clip-rule="evenodd" d="M296.845 444.231H446.619V593.979H296.845V444.231Z" fill="white"/>
</mask>
<g mask="url(#mask28_239_1119)">
<path fill-rule="evenodd" clip-rule="evenodd" d="M446.619 519.107L371.728 444.23L296.845 519.104L371.732 593.979L446.619 519.107Z" fill="#030F4B"/>
</g>
<path fill-rule="evenodd" clip-rule="evenodd" d="M428.328 519.106L371.728 462.518L315.135 519.105L371.732 575.694L428.328 519.106Z" fill="#EE2A2E"/>
<path fill-rule="evenodd" clip-rule="evenodd" d="M409.066 519.106L371.729 481.774L334.393 519.104L371.733 556.436L409.066 519.106Z" fill="#FFF9DF"/>
<path fill-rule="evenodd" clip-rule="evenodd" d="M296.841 744.655H446.626V594.87H296.841V744.655Z" fill="#FFF9DF"/>
<path fill-rule="evenodd" clip-rule="evenodd" d="M445.871 669.39C445.871 710.546 412.509 743.911 371.356 743.911C330.203 743.911 296.841 710.546 296.841 669.39C296.841 628.234 330.203 594.871 371.356 594.871C412.509 594.871 445.871 628.234 445.871 669.39Z" fill="#CBCBBF"/>
<path fill-rule="evenodd" clip-rule="evenodd" d="M445.871 669.39C445.871 710.546 412.509 743.911 371.356 743.911C330.203 743.911 296.841 710.546 296.841 669.39C296.841 628.234 330.203 594.871 371.356 594.871C412.509 594.871 445.871 628.234 445.871 669.39Z" fill="black"/>
<mask id="mask29_239_1119" style="mask-type:alpha" maskUnits="userSpaceOnUse" x="296" y="669" width="150" height="75">
<path fill-rule="evenodd" clip-rule="evenodd" d="M296.841 669.298H445.871V743.876H296.841V669.298Z" fill="white"/>
</mask>
<g mask="url(#mask29_239_1119)">
<path fill-rule="evenodd" clip-rule="evenodd" d="M445.871 668.919C445.871 710.315 412.509 743.875 371.356 743.875C330.203 743.875 296.841 710.315 296.841 668.919C296.841 627.522 330.203 593.963 371.356 593.963C412.509 593.963 445.871 627.522 445.871 668.919Z" fill="#CBCBBF"/>
</g>
<path fill-rule="evenodd" clip-rule="evenodd" d="M596.795 444.484L596.794 294.506H746.747V444.484H596.795Z" fill="#00599B"/>
<path fill-rule="evenodd" clip-rule="evenodd" d="M596.795 444.483H671.939L596.794 296.014L596.795 444.483Z" fill="#EE2A2E"/>
<path fill-rule="evenodd" clip-rule="evenodd" d="M596.795 444.483H671.939L596.794 296.014L596.795 444.483Z" fill="black"/>
<path fill-rule="evenodd" clip-rule="evenodd" d="M746.747 294.506H671.603L746.747 442.976V294.506Z" fill="#CBCBBF"/>
<mask id="mask30_239_1119" style="mask-type:alpha" maskUnits="userSpaceOnUse" x="-78" y="-89" width="1507" height="1096">
<path fill-rule="evenodd" clip-rule="evenodd" d="M-78 1006.98H1428.5V-89H-78V1006.98Z" fill="white"/>
</mask>
<g mask="url(#mask30_239_1119)">
</g>
<path fill-rule="evenodd" clip-rule="evenodd" d="M447.067 594.288H596.986V444.247H447.067V594.288Z" fill="#00599B"/>
<path fill-rule="evenodd" clip-rule="evenodd" d="M596.982 519.267C596.982 560.701 563.425 594.287 522.027 594.287C480.628 594.287 447.071 560.701 447.071 519.267C447.071 477.834 480.628 444.246 522.027 444.246C563.425 444.246 596.982 477.834 596.982 519.267Z" fill="#FFF9DF"/>
<path fill-rule="evenodd" clip-rule="evenodd" d="M447.067 594.288H522.028V444.247H447.067V594.288Z" fill="#00599B"/>
<path fill-rule="evenodd" clip-rule="evenodd" d="M596.986 594.288H746.903V444.247H596.986V594.288Z" fill="#CBCBBF"/>
<path fill-rule="evenodd" clip-rule="evenodd" d="M596.986 444.247V594.288H746.903" fill="#EE2A2E"/>
<path fill-rule="evenodd" clip-rule="evenodd" d="M596.986 507.834V594.287H683.367" fill="#00599B"/>
<path fill-rule="evenodd" clip-rule="evenodd" d="M147.232 144.152H297.149V-5.88867H147.232V144.152Z" fill="#CBCBBF"/>
<path fill-rule="evenodd" clip-rule="evenodd" d="M147.233 -5.88867V144.152H297.15" fill="#EE2A2E"/>
<path fill-rule="evenodd" clip-rule="evenodd" d="M172.219 19.1187V119.144H272.163" fill="#FFF9DF"/>
<path fill-rule="evenodd" clip-rule="evenodd" d="M484.054 444.489C484.054 444.489 563.958 514.331 483.839 594.293L484.054 444.489Z" fill="#EE2A2E"/>
<path fill-rule="evenodd" clip-rule="evenodd" d="M484.054 444.489C484.054 444.489 403.955 514.102 483.844 594.289L484.054 444.489Z" fill="#030F4B"/>
<path fill-rule="evenodd" clip-rule="evenodd" d="M147.237 894.377H297.149V744.327H147.237V894.377Z" fill="#FFF9DF"/>
<path fill-rule="evenodd" clip-rule="evenodd" d="M147.239 819.351V894.293L222.194 856.823L147.239 819.351Z" fill="#EE2A2E"/>
<path fill-rule="evenodd" clip-rule="evenodd" d="M147.239 744.405V819.351L222.194 781.877L147.239 744.405Z" fill="#EE2A2E"/>
<path fill-rule="evenodd" clip-rule="evenodd" d="M297.152 744.405L222.194 781.877L297.152 819.351V744.405Z" fill="#00599B"/>
<path fill-rule="evenodd" clip-rule="evenodd" d="M297.152 894.293V819.351L222.194 856.823L297.152 894.293Z" fill="#00599B"/>
<path fill-rule="evenodd" clip-rule="evenodd" d="M297.152 819.351L222.194 781.879L147.239 819.351L222.194 856.823L297.152 819.351Z" fill="#CBCBBF"/>
<path fill-rule="evenodd" clip-rule="evenodd" d="M-2.68714 894.377H147.224V744.331H-2.68714V894.377Z" fill="#CBCBBF"/>
<path fill-rule="evenodd" clip-rule="evenodd" d="M-2.68714 819.354H72.2695V744.331H-2.68714V819.354Z" fill="#030F4B"/>
<path fill-rule="evenodd" clip-rule="evenodd" d="M15.252 799.752H51.1265V763.845H15.252V799.752Z" fill="#FFF9DF"/>
<path fill-rule="evenodd" clip-rule="evenodd" d="M72.2731 819.354H147.228V744.331H72.2731V819.354Z" fill="#030F4B"/>
<mask id="mask31_239_1119" style="mask-type:alpha" maskUnits="userSpaceOnUse" x="80" y="747" width="2" height="74">
<path fill-rule="evenodd" clip-rule="evenodd" d="M80.0589 747.605H81.8648V820.01H80.0589V747.605Z" fill="white"/>
</mask>
<g mask="url(#mask31_239_1119)">
<path d="M80.9619 747.153V878.19" stroke="#FFF9DF" stroke-width="2.88"/>
</g>
<mask id="mask32_239_1119" style="mask-type:alpha" maskUnits="userSpaceOnUse" x="106" y="747" width="2" height="74">
<path fill-rule="evenodd" clip-rule="evenodd" d="M106.063 747.605H107.869V820.01H106.063V747.605Z" fill="white"/>
</mask>
<g mask="url(#mask32_239_1119)">
<path d="M106.966 747.153V878.19" stroke="#FFF9DF" stroke-width="2.88"/>
</g>
<mask id="mask33_239_1119" style="mask-type:alpha" maskUnits="userSpaceOnUse" x="132" y="747" width="2" height="74">
<path fill-rule="evenodd" clip-rule="evenodd" d="M132.069 747.605H133.875V820.01H132.069V747.605Z" fill="white"/>
</mask>
<g mask="url(#mask33_239_1119)">
<path d="M132.972 747.153V878.19" stroke="#FFF9DF" stroke-width="2.88"/>
</g>
<mask id="mask34_239_1119" style="mask-type:alpha" maskUnits="userSpaceOnUse" x="93" y="747" width="2" height="74">
<path fill-rule="evenodd" clip-rule="evenodd" d="M93.0601 747.605H94.866V820.01H93.0601V747.605Z" fill="white"/>
</mask>
<g mask="url(#mask34_239_1119)">
<path d="M93.963 747.153V878.19" stroke="#FFF9DF" stroke-width="2.88"/>
</g>
<mask id="mask35_239_1119" style="mask-type:alpha" maskUnits="userSpaceOnUse" x="119" y="747" width="2" height="74">
<path fill-rule="evenodd" clip-rule="evenodd" d="M119.066 747.605H120.872V820.01H119.066V747.605Z" fill="white"/>
</mask>
<g mask="url(#mask35_239_1119)">
<path d="M119.969 747.153V878.19" stroke="#FFF9DF" stroke-width="2.88"/>
</g>
<mask id="mask36_239_1119" style="mask-type:alpha" maskUnits="userSpaceOnUse" x="145" y="747" width="2" height="74">
<path fill-rule="evenodd" clip-rule="evenodd" d="M145.072 747.605H146.878V820.01H145.072V747.605Z" fill="white"/>
</mask>
<g mask="url(#mask36_239_1119)">
<path d="M145.975 747.153V878.19" stroke="#FFF9DF" stroke-width="2.88"/>
</g>
<mask id="mask37_239_1119" style="mask-type:alpha" maskUnits="userSpaceOnUse" x="80" y="747" width="2" height="2">
<path fill-rule="evenodd" clip-rule="evenodd" d="M80.0589 747.605H81.8648V748.057H80.0589V747.605Z" fill="white"/>
</mask>
<g mask="url(#mask37_239_1119)">
<path d="M80.9619 617.02V748.057" stroke="#FFF9DF" stroke-width="2.88"/>
</g>
<mask id="mask38_239_1119" style="mask-type:alpha" maskUnits="userSpaceOnUse" x="106" y="747" width="2" height="2">
<path fill-rule="evenodd" clip-rule="evenodd" d="M106.063 747.605H107.869V748.057H106.063V747.605Z" fill="white"/>
</mask>
<g mask="url(#mask38_239_1119)">
<path d="M106.966 617.02V748.057" stroke="#FFF9DF" stroke-width="2.88"/>
</g>
<mask id="mask39_239_1119" style="mask-type:alpha" maskUnits="userSpaceOnUse" x="132" y="747" width="2" height="2">
<path fill-rule="evenodd" clip-rule="evenodd" d="M132.069 747.605H133.875V748.057H132.069V747.605Z" fill="white"/>
</mask>
<g mask="url(#mask39_239_1119)">
<path d="M132.972 617.02V748.057" stroke="#FFF9DF" stroke-width="2.88"/>
</g>
<mask id="mask40_239_1119" style="mask-type:alpha" maskUnits="userSpaceOnUse" x="93" y="747" width="2" height="2">
<path fill-rule="evenodd" clip-rule="evenodd" d="M93.0601 747.605H94.866V748.057H93.0601V747.605Z" fill="white"/>
</mask>
<g mask="url(#mask40_239_1119)">
<path d="M93.963 617.02V748.057" stroke="#FFF9DF" stroke-width="2.88"/>
</g>
<mask id="mask41_239_1119" style="mask-type:alpha" maskUnits="userSpaceOnUse" x="119" y="747" width="2" height="2">
<path fill-rule="evenodd" clip-rule="evenodd" d="M119.066 747.605H120.872V748.057H119.066V747.605Z" fill="white"/>
</mask>
<g mask="url(#mask41_239_1119)">
<path d="M119.969 617.02V748.057" stroke="#FFF9DF" stroke-width="2.88"/>
</g>
<mask id="mask42_239_1119" style="mask-type:alpha" maskUnits="userSpaceOnUse" x="145" y="747" width="2" height="2">
<path fill-rule="evenodd" clip-rule="evenodd" d="M145.072 747.605H146.878V748.057H145.072V747.605Z" fill="white"/>
</mask>
<g mask="url(#mask42_239_1119)">
<path d="M145.975 617.02V748.057" stroke="#FFF9DF" stroke-width="2.88"/>
</g>
<mask id="mask43_239_1119" style="mask-type:alpha" maskUnits="userSpaceOnUse" x="80" y="747" width="2" height="1">
<path fill-rule="evenodd" clip-rule="evenodd" d="M80.0589 747.164H81.8648V747.622H80.0589V747.164Z" fill="white"/>
</mask>
<g mask="url(#mask43_239_1119)">
<path d="M80.9619 747.164V879.818" stroke="#FFF9DF" stroke-width="2.88"/>
</g>
<mask id="mask44_239_1119" style="mask-type:alpha" maskUnits="userSpaceOnUse" x="106" y="747" width="2" height="1">
<path fill-rule="evenodd" clip-rule="evenodd" d="M106.063 747.164H107.869V747.622H106.063V747.164Z" fill="white"/>
</mask>
<g mask="url(#mask44_239_1119)">
<path d="M106.966 747.164V879.818" stroke="#FFF9DF" stroke-width="2.88"/>
</g>
<mask id="mask45_239_1119" style="mask-type:alpha" maskUnits="userSpaceOnUse" x="132" y="747" width="2" height="1">
<path fill-rule="evenodd" clip-rule="evenodd" d="M132.069 747.164H133.875V747.622H132.069V747.164Z" fill="white"/>
</mask>
<g mask="url(#mask45_239_1119)">
<path d="M132.972 747.164V879.818" stroke="#FFF9DF" stroke-width="2.88"/>
</g>
<mask id="mask46_239_1119" style="mask-type:alpha" maskUnits="userSpaceOnUse" x="93" y="747" width="2" height="1">
<path fill-rule="evenodd" clip-rule="evenodd" d="M93.0601 747.164H94.866V747.622H93.0601V747.164Z" fill="white"/>
</mask>
<g mask="url(#mask46_239_1119)">
<path d="M93.963 747.164V879.818" stroke="#FFF9DF" stroke-width="2.88"/>
</g>
<mask id="mask47_239_1119" style="mask-type:alpha" maskUnits="userSpaceOnUse" x="119" y="747" width="2" height="1">
<path fill-rule="evenodd" clip-rule="evenodd" d="M119.066 747.164H120.872V747.622H119.066V747.164Z" fill="white"/>
</mask>
<g mask="url(#mask47_239_1119)">
<path d="M119.969 747.164V879.818" stroke="#FFF9DF" stroke-width="2.88"/>
</g>
<mask id="mask48_239_1119" style="mask-type:alpha" maskUnits="userSpaceOnUse" x="145" y="747" width="2" height="1">
<path fill-rule="evenodd" clip-rule="evenodd" d="M145.072 747.164H146.878V747.622H145.072V747.164Z" fill="white"/>
</mask>
<g mask="url(#mask48_239_1119)">
<path d="M145.975 747.164V879.818" stroke="#FFF9DF" stroke-width="2.88"/>
</g>
<mask id="mask49_239_1119" style="mask-type:alpha" maskUnits="userSpaceOnUse" x="80" y="744" width="2" height="4">
<path fill-rule="evenodd" clip-rule="evenodd" d="M80.0589 744.63H81.8648V747.621H80.0589V744.63Z" fill="white"/>
</mask>
<g mask="url(#mask49_239_1119)">
<path d="M80.9619 615.424V748.079" stroke="#FFF9DF" stroke-width="2.88"/>
</g>
<mask id="mask50_239_1119" style="mask-type:alpha" maskUnits="userSpaceOnUse" x="106" y="744" width="2" height="4">
<path fill-rule="evenodd" clip-rule="evenodd" d="M106.063 744.63H107.869V747.621H106.063V744.63Z" fill="white"/>
</mask>
<g mask="url(#mask50_239_1119)">
<path d="M106.966 615.424V748.079" stroke="#FFF9DF" stroke-width="2.88"/>
</g>
<mask id="mask51_239_1119" style="mask-type:alpha" maskUnits="userSpaceOnUse" x="132" y="744" width="2" height="4">
<path fill-rule="evenodd" clip-rule="evenodd" d="M132.069 744.63H133.875V747.621H132.069V744.63Z" fill="white"/>
</mask>
<g mask="url(#mask51_239_1119)">
<path d="M132.972 615.424V748.079" stroke="#FFF9DF" stroke-width="2.88"/>
</g>
<mask id="mask52_239_1119" style="mask-type:alpha" maskUnits="userSpaceOnUse" x="93" y="744" width="2" height="4">
<path fill-rule="evenodd" clip-rule="evenodd" d="M93.0601 744.63H94.866V747.621H93.0601V744.63Z" fill="white"/>
</mask>
<g mask="url(#mask52_239_1119)">
<path d="M93.963 615.424V748.079" stroke="#FFF9DF" stroke-width="2.88"/>
</g>
<mask id="mask53_239_1119" style="mask-type:alpha" maskUnits="userSpaceOnUse" x="119" y="744" width="2" height="4">
<path fill-rule="evenodd" clip-rule="evenodd" d="M119.066 744.63H120.872V747.621H119.066V744.63Z" fill="white"/>
</mask>
<g mask="url(#mask53_239_1119)">
<path d="M119.969 615.424V748.079" stroke="#FFF9DF" stroke-width="2.88"/>
</g>
<mask id="mask54_239_1119" style="mask-type:alpha" maskUnits="userSpaceOnUse" x="145" y="744" width="2" height="4">
<path fill-rule="evenodd" clip-rule="evenodd" d="M145.072 744.63H146.878V747.621H145.072V744.63Z" fill="white"/>
</mask>
<g mask="url(#mask54_239_1119)">
<path d="M145.975 615.424V748.079" stroke="#FFF9DF" stroke-width="2.88"/>
</g>
<mask id="mask55_239_1119" style="mask-type:alpha" maskUnits="userSpaceOnUse" x="-3" y="827" width="149" height="68">
<path fill-rule="evenodd" clip-rule="evenodd" d="M-2.68823 827.354H145.588V894.375H-2.68823V827.354Z" fill="white"/>
</mask>
<g mask="url(#mask55_239_1119)">
<path fill-rule="evenodd" clip-rule="evenodd" d="M71.3301 976.564C30.3171 976.564 -2.92961 943.163 -2.92961 901.958C-2.92961 860.755 30.3171 827.354 71.3301 827.354C112.341 827.354 145.588 860.755 145.588 901.958C145.588 943.163 112.341 976.564 71.3301 976.564Z" fill="#EE2A2E"/>
</g>
<path fill-rule="evenodd" clip-rule="evenodd" d="M446.598 744.657H596.571V594.734H446.598V744.657Z" fill="#CBCBBF"/>
<path fill-rule="evenodd" clip-rule="evenodd" d="M521.417 744.657H596.571V594.734H521.417V744.657Z" fill="#FFF9DF"/>
<path fill-rule="evenodd" clip-rule="evenodd" d="M521.417 744.657H596.571V594.734H521.417V744.657Z" fill="black"/>
</g>
</g>
</svg>
